<svg width="181" height="122" viewBox="0 0 181 122" fill="none" xmlns="http://www.w3.org/2000/svg">
<rect width="180.766" height="122" rx="20" fill="#222222"/>
<path d="M47.4321 61.11C47.4321 62.3287 47.3228 63.4381 47.104 64.4381C46.9009 65.4225 46.5728 66.3287 46.1196 67.1569C45.6665 67.985 45.0806 68.7506 44.3618 69.4537C43.6431 70.1569 42.7759 70.8287 41.7603 71.4694L47.3384 81.4069L36.7915 83.4694L33.1821 73.485L30.2759 73.5787L29.854 83.3287H19.7759C19.854 79.7662 19.9243 76.2194 19.9868 72.6881C20.0649 69.1569 20.1509 65.61 20.2446 62.0475C20.2759 60.2506 20.3071 58.4694 20.3384 56.7037C20.3696 54.9381 20.4321 53.1569 20.5259 51.36C21.6196 50.9537 22.6978 50.6178 23.7603 50.3522C24.8228 50.0865 25.8853 49.8834 26.9478 49.7428C28.0259 49.5865 29.1118 49.485 30.2056 49.4381C31.3149 49.3756 32.4478 49.3444 33.604 49.3444C35.3853 49.3444 37.104 49.5944 38.7603 50.0944C40.4321 50.5787 41.9087 51.3131 43.1899 52.2975C44.4712 53.2819 45.4946 54.5084 46.2603 55.9772C47.0415 57.4459 47.4321 59.1569 47.4321 61.11ZM36.9321 61.86C36.9321 61.2037 36.8384 60.6022 36.6509 60.0553C36.479 59.5084 36.2134 59.0397 35.854 58.649C35.5103 58.2428 35.0728 57.9303 34.5415 57.7115C34.0259 57.4772 33.4165 57.36 32.7134 57.36C32.4009 57.36 32.0962 57.3834 31.7993 57.4303C31.5024 57.4615 31.2134 57.5162 30.9321 57.5944L30.5571 66.3131H31.1196C31.7915 66.3131 32.4712 66.2272 33.1587 66.0553C33.8618 65.8834 34.4868 65.6178 35.0337 65.2584C35.5962 64.899 36.0493 64.4381 36.3931 63.8756C36.7524 63.3131 36.9321 62.6412 36.9321 61.86ZM76.354 75.36C76.354 76.6569 76.1118 77.774 75.6274 78.7115C75.1587 79.649 74.5259 80.4459 73.729 81.1022C72.9321 81.7584 72.0103 82.2975 70.9634 82.7194C69.9321 83.1256 68.854 83.4459 67.729 83.6803C66.604 83.9147 65.4712 84.0709 64.3306 84.149C63.2056 84.2272 62.1509 84.2662 61.1665 84.2662C60.1978 84.2662 59.1899 84.2272 58.1431 84.149C57.1118 84.0865 56.0806 83.9694 55.0493 83.7975C54.0181 83.6256 53.0024 83.399 52.0024 83.1178C51.0024 82.8209 50.0571 82.4537 49.1665 82.0162L49.1196 51.8287C49.9946 51.4694 50.9243 51.149 51.9087 50.8678C52.8931 50.5709 53.8931 50.3287 54.9087 50.1412C55.9399 49.9381 56.9634 49.7897 57.979 49.6959C58.9946 49.5865 59.979 49.5319 60.9321 49.5319C62.0415 49.5319 63.1587 49.6022 64.2837 49.7428C65.4243 49.8834 66.5181 50.1178 67.5649 50.4459C68.6118 50.774 69.5884 51.2037 70.4946 51.735C71.4009 52.2506 72.1899 52.8912 72.8618 53.6569C73.5493 54.4225 74.0806 55.3131 74.4556 56.3287C74.8462 57.3444 75.0415 58.5162 75.0415 59.8444C75.0415 60.7194 74.9165 61.5397 74.6665 62.3053C74.4165 63.0709 74.0571 63.7584 73.5884 64.3678C73.1196 64.9772 72.5493 65.5006 71.8774 65.9381C71.2056 66.36 70.4478 66.6725 69.604 66.8756C70.6196 67.1412 71.5415 67.5319 72.3696 68.0475C73.2134 68.5631 73.9243 69.1881 74.5024 69.9225C75.0962 70.6569 75.5493 71.485 75.8618 72.4069C76.1899 73.3287 76.354 74.3131 76.354 75.36ZM64.4478 62.0006C64.4478 61.5475 64.354 61.1647 64.1665 60.8522C63.979 60.524 63.7446 60.2584 63.4634 60.0553C63.1978 59.8522 62.9009 59.7037 62.5728 59.61C62.2603 59.5162 61.979 59.4694 61.729 59.4694C61.4165 59.4694 61.1118 59.5162 60.8149 59.61C60.5181 59.7037 60.229 59.8131 59.9478 59.9381L59.8071 65.1412C60.1665 65.1412 60.6118 65.11 61.1431 65.0475C61.6743 64.985 62.1821 64.8522 62.6665 64.649C63.1665 64.4303 63.5884 64.1178 63.9321 63.7115C64.2759 63.2897 64.4478 62.7194 64.4478 62.0006ZM61.1196 69.6412C60.6665 69.6412 60.229 69.6881 59.8071 69.7819L59.7134 75.1256C59.9478 75.1725 60.1743 75.2194 60.3931 75.2662C60.6274 75.2975 60.854 75.3131 61.0728 75.3131C61.4009 75.3131 61.7603 75.2819 62.1509 75.2194C62.5415 75.1412 62.9087 75.0006 63.2524 74.7975C63.5962 74.5787 63.8774 74.2897 64.0962 73.9303C64.3306 73.5709 64.4478 73.0944 64.4478 72.5006C64.4478 71.9069 64.3306 71.4225 64.0962 71.0475C63.8774 70.6725 63.604 70.3834 63.2759 70.1803C62.9478 69.9615 62.5884 69.8209 62.1978 69.7584C61.8071 69.6803 61.4478 69.6412 61.1196 69.6412ZM98.1743 71.2819L97.1899 81.6881L77.4556 83.235L78.2056 49.7662H90.3931L88.6587 71.2819H98.1743ZM128.245 65.7506C128.245 67.1725 128.081 68.5475 127.752 69.8756C127.424 71.1881 126.948 72.4225 126.323 73.5787C125.713 74.735 124.963 75.7975 124.073 76.7662C123.198 77.7194 122.206 78.5397 121.096 79.2272C120.002 79.9147 118.807 80.4537 117.51 80.8444C116.213 81.2194 114.838 81.4069 113.385 81.4069C111.979 81.4069 110.635 81.2272 109.354 80.8678C108.088 80.5084 106.901 80.0084 105.792 79.3678C104.682 78.7115 103.674 77.9303 102.768 77.024C101.877 76.1022 101.112 75.0865 100.471 73.9772C99.8462 72.8522 99.354 71.649 98.9946 70.3678C98.6509 69.0865 98.479 67.7506 98.479 66.36C98.479 65.0006 98.6431 63.6725 98.9712 62.3756C99.2993 61.0631 99.7681 59.8287 100.377 58.6725C101.002 57.5162 101.752 56.4537 102.627 55.485C103.502 54.5162 104.479 53.6803 105.557 52.9772C106.651 52.274 107.831 51.7272 109.096 51.3365C110.362 50.9459 111.698 50.7506 113.104 50.7506C115.37 50.7506 117.432 51.1022 119.292 51.8053C121.167 52.5084 122.76 53.5162 124.073 54.8287C125.401 56.1256 126.424 57.7037 127.143 59.5631C127.877 61.4069 128.245 63.4694 128.245 65.7506ZM117.838 66.36C117.838 65.6881 117.737 65.0397 117.534 64.4147C117.346 63.774 117.065 63.2115 116.69 62.7272C116.315 62.2272 115.846 61.8287 115.284 61.5319C114.737 61.2194 114.104 61.0631 113.385 61.0631C112.651 61.0631 111.995 61.1959 111.417 61.4615C110.838 61.7272 110.338 62.0944 109.917 62.5631C109.51 63.0162 109.198 63.5553 108.979 64.1803C108.76 64.7897 108.651 65.4381 108.651 66.1256C108.651 66.7819 108.745 67.4381 108.932 68.0944C109.12 68.7506 109.401 69.3444 109.776 69.8756C110.151 70.4069 110.612 70.8365 111.159 71.1647C111.721 71.4928 112.37 71.6569 113.104 71.6569C113.838 71.6569 114.495 71.5162 115.073 71.235C115.667 70.9381 116.167 70.5475 116.573 70.0631C116.979 69.5631 117.292 68.9928 117.51 68.3522C117.729 67.7115 117.838 67.0475 117.838 66.36ZM158.221 78.4537C157.487 79.3756 156.581 80.1803 155.502 80.8678C154.424 81.5553 153.268 82.1256 152.034 82.5787C150.799 83.0319 149.534 83.3756 148.237 83.61C146.94 83.8287 145.706 83.9381 144.534 83.9381C142.268 83.9381 140.182 83.5553 138.276 82.7897C136.37 82.024 134.721 80.9615 133.331 79.6022C131.956 78.2272 130.877 76.5944 130.096 74.7037C129.315 72.8131 128.924 70.7506 128.924 68.5162C128.924 66.8131 129.12 65.1569 129.51 63.5475C129.901 61.9381 130.456 60.4303 131.174 59.024C131.909 57.6178 132.799 56.3287 133.846 55.1569C134.893 53.985 136.081 52.9772 137.409 52.1334C138.737 51.2897 140.19 50.6412 141.768 50.1881C143.362 49.7194 145.049 49.485 146.831 49.485C147.502 49.485 148.221 49.5162 148.987 49.5787C149.752 49.6256 150.51 49.7194 151.26 49.86C152.026 49.985 152.768 50.1647 153.487 50.399C154.206 50.6334 154.862 50.9225 155.456 51.2662L154.799 60.2194C153.924 59.8912 153.018 59.6725 152.081 59.5631C151.159 59.4381 150.252 59.3756 149.362 59.3756C148.112 59.3756 146.94 59.5475 145.846 59.8912C144.768 60.2194 143.823 60.7115 143.01 61.3678C142.213 62.024 141.581 62.8444 141.112 63.8287C140.643 64.8131 140.409 65.9537 140.409 67.2506C140.409 68.0631 140.518 68.8522 140.737 69.6178C140.956 70.3678 141.284 71.0397 141.721 71.6334C142.174 72.2115 142.729 72.6803 143.385 73.0397C144.057 73.399 144.831 73.5787 145.706 73.5787C146.299 73.5787 146.909 73.5006 147.534 73.3444C148.174 73.1881 148.721 72.9225 149.174 72.5475L149.268 70.7194L143.643 70.6256L143.924 63.5944C146.252 63.5162 148.581 63.4537 150.909 63.4069C153.237 63.3444 155.581 63.2662 157.94 63.1725L158.221 78.4537Z" fill="white"/>
<g filter="url(#filter0_d_191_28)">
<path d="M102.687 31.9177L98.5891 14.0921C98.5361 13.859 98.4333 13.6378 98.2866 13.4412C98.1398 13.2445 97.9521 13.0763 97.7341 12.9463C97.5161 12.8162 97.2721 12.7269 97.0163 12.6833C96.7604 12.6398 96.4977 12.6429 96.2431 12.6925L90.4633 13.8289C89.9521 13.9314 89.5057 14.2143 89.2213 14.6162C88.9369 15.0182 88.8374 15.5066 88.9446 15.9752L93.0427 33.8008C93.134 34.2075 93.3756 34.573 93.7268 34.8359C94.0781 35.0988 94.5175 35.2431 94.9714 35.2445C95.1116 35.2443 95.2515 35.2307 95.3887 35.2038L101.169 34.0674C101.68 33.9647 102.127 33.6812 102.412 33.2786C102.696 32.876 102.795 32.3868 102.687 31.9177ZM90.877 15.6059C90.877 15.5991 90.877 15.5957 90.877 15.5957L96.6555 14.4661L97.0667 16.2588L91.2881 17.3963L90.877 15.6059ZM91.6944 19.1608L97.4754 18.0255L97.8878 19.8216L92.1117 20.958L91.6944 19.1608ZM92.5142 22.727L98.2953 21.5906L99.9375 28.7344L94.1564 29.8708L92.5142 22.727ZM100.755 32.3006L94.9763 33.4303L94.5651 31.6376L100.344 30.5L100.755 32.2905C100.755 32.2973 100.755 32.3006 100.755 32.3006ZM86.9258 13.5556H80.999C80.4751 13.5556 79.9726 13.746 79.6021 14.085C79.2316 14.4239 79.0234 14.8836 79.0234 15.363V33.4371C79.0234 33.9164 79.2316 34.3761 79.6021 34.7151C79.9726 35.054 80.4751 35.2445 80.999 35.2445H86.9258C87.4497 35.2445 87.9522 35.054 88.3227 34.7151C88.6932 34.3761 88.9014 33.9164 88.9014 33.4371V15.363C88.9014 14.8836 88.6932 14.4239 88.3227 14.085C87.9522 13.746 87.4497 13.5556 86.9258 13.5556ZM80.999 15.363H86.9258V17.1704H80.999V15.363ZM80.999 18.9778H86.9258V29.8222H80.999V18.9778ZM86.9258 33.4371H80.999V31.6296H86.9258V33.4371Z" fill="white"/>
</g>
<defs>
<filter id="filter0_d_191_28" x="70.0845" y="9.94073" width="39.6094" height="36.9185" filterUnits="userSpaceOnUse" color-interpolation-filters="sRGB">
<feFlood flood-opacity="0" result="BackgroundImageFix"/>
<feColorMatrix in="SourceAlpha" type="matrix" values="0 0 0 0 0 0 0 0 0 0 0 0 0 0 0 0 0 0 127 0" result="hardAlpha"/>
<feOffset dy="4"/>
<feGaussianBlur stdDeviation="2"/>
<feComposite in2="hardAlpha" operator="out"/>
<feColorMatrix type="matrix" values="0 0 0 0 0 0 0 0 0 0 0 0 0 0 0 0 0 0 0.25 0"/>
<feBlend mode="normal" in2="BackgroundImageFix" result="effect1_dropShadow_191_28"/>
<feBlend mode="normal" in="SourceGraphic" in2="effect1_dropShadow_191_28" result="shape"/>
</filter>
</defs>
</svg>
